<?xml version="1.0" encoding="UTF-8" ?>
<svg xmlns="http://www.w3.org/2000/svg" version="1.1" lang="en" width="420" height="410">
  <rect x="0" y="0" width="420" height="410" fill="white"></rect>
  <text x="15" y="165" style="font-family: 'Courier'; font-style: normal">I</text>
  <line x1="20" y1="140" x2="20" y2="155" stroke="black"></line>
  <text x="15" y="130" style="font-family: 'Courier'; font-style: normal">N</text>
  <line x1="20" y1="105" x2="20" y2="120" stroke="black"></line>
  <text x="10" y="95" style="font-family: 'Courier'; font-style: normal">N&apos;</text>
  <line x1="20" y1="70" x2="20" y2="85" stroke="black"></line>
  <text x="10" y="60" style="font-family: 'Courier'; font-style: normal">NP</text>
  <line x1="210" y1="35" x2="20" y2="50" stroke="black"></line>
  <text x="40" y="130" style="font-family: 'Courier'; font-style: normal">[PAST]</text>
  <line x1="70" y1="105" x2="70" y2="120" stroke="black"></line>
  <text x="65" y="95" style="font-family: 'Courier'; font-style: normal">T</text>
  <line x1="230" y1="70" x2="70" y2="85" stroke="black"></line>
  <text x="110" y="200" style="font-family: 'Courier'; font-style: normal">shot</text>
  <line x1="130" y1="175" x2="130" y2="190" stroke="black"></line>
  <text x="125" y="165" style="font-family: 'Courier'; font-style: normal">V</text>
  <line x1="190" y1="140" x2="130" y2="155" stroke="black"></line>
  <text x="160" y="270" style="font-family: 'Courier'; font-style: normal">an</text>
  <line x1="170" y1="245" x2="170" y2="260" stroke="black"></line>
  <text x="165" y="235" style="font-family: 'Courier'; font-style: normal">D</text>
  <line x1="220" y1="210" x2="170" y2="225" stroke="black"></line>
  <text x="190" y="340" style="font-family: 'Courier'; font-style: normal">elephant</text>
  <line x1="230" y1="315" x2="230" y2="330" stroke="black"></line>
  <text x="225" y="305" style="font-family: 'Courier'; font-style: normal">N</text>
  <line x1="230" y1="280" x2="230" y2="295" stroke="black"></line>
  <text x="220" y="270" style="font-family: 'Courier'; font-style: normal">N&apos;</text>
  <line x1="230" y1="245" x2="230" y2="260" stroke="black"></line>
  <text x="220" y="235" style="font-family: 'Courier'; font-style: normal">NP</text>
  <line x1="220" y1="210" x2="230" y2="225" stroke="black"></line>
  <text x="210" y="200" style="font-family: 'Courier'; font-style: normal">D&apos;</text>
  <line x1="220" y1="175" x2="220" y2="190" stroke="black"></line>
  <text x="210" y="165" style="font-family: 'Courier'; font-style: normal">DP</text>
  <line x1="190" y1="140" x2="220" y2="155" stroke="black"></line>
  <text x="180" y="130" style="font-family: 'Courier'; font-style: normal">V&apos;</text>
  <line x1="260" y1="105" x2="190" y2="120" stroke="black"></line>
  <text x="280" y="235" style="font-family: 'Courier'; font-style: normal">in</text>
  <line x1="290" y1="210" x2="290" y2="225" stroke="black"></line>
  <text x="285" y="200" style="font-family: 'Courier'; font-style: normal">P</text>
  <line x1="350" y1="175" x2="290" y2="190" stroke="black"></line>
  <text x="310" y="305" style="font-family: 'Courier'; font-style: normal">my</text>
  <line x1="320" y1="280" x2="320" y2="295" stroke="black"></line>
  <text x="315" y="270" style="font-family: 'Courier'; font-style: normal">D</text>
  <line x1="360" y1="245" x2="320" y2="260" stroke="black"></line>
  <text x="345" y="375" style="font-family: 'Courier'; font-style: normal">pajamas</text>
  <line x1="380" y1="350" x2="380" y2="365" stroke="black"></line>
  <text x="375" y="340" style="font-family: 'Courier'; font-style: normal">N</text>
  <line x1="380" y1="315" x2="380" y2="330" stroke="black"></line>
  <text x="370" y="305" style="font-family: 'Courier'; font-style: normal">N&apos;</text>
  <line x1="380" y1="280" x2="380" y2="295" stroke="black"></line>
  <text x="370" y="270" style="font-family: 'Courier'; font-style: normal">NP</text>
  <line x1="360" y1="245" x2="380" y2="260" stroke="black"></line>
  <text x="350" y="235" style="font-family: 'Courier'; font-style: normal">D&apos;</text>
  <line x1="360" y1="210" x2="360" y2="225" stroke="black"></line>
  <text x="350" y="200" style="font-family: 'Courier'; font-style: normal">DP</text>
  <line x1="350" y1="175" x2="360" y2="190" stroke="black"></line>
  <text x="340" y="165" style="font-family: 'Courier'; font-style: normal">P&apos;</text>
  <line x1="350" y1="140" x2="350" y2="155" stroke="black"></line>
  <text x="340" y="130" style="font-family: 'Courier'; font-style: normal">PP</text>
  <line x1="260" y1="105" x2="350" y2="120" stroke="black"></line>
  <text x="250" y="95" style="font-family: 'Courier'; font-style: normal">VP</text>
  <line x1="230" y1="70" x2="260" y2="85" stroke="black"></line>
  <text x="220" y="60" style="font-family: 'Courier'; font-style: normal">T&apos;</text>
  <line x1="210" y1="35" x2="230" y2="50" stroke="black"></line>
  <text x="200" y="25" style="font-family: 'Courier'; font-style: normal">TP</text></svg>